<?xml version="1.0" encoding="UTF-8"?>
<svg id="_Слой_1" data-name="Слой 1" xmlns="http://www.w3.org/2000/svg" viewBox="0 0 146.18 79">
  <defs>
    <style>
      .cls-1 {
        fill: #fff;
      }

      .cls-2 {
        fill-rule: evenodd;
      }

      .cls-2, .cls-3 {
        fill: #333;
      }

      .cls-4 {
        fill: #ffdd2d;
      }
    </style>
  </defs>
  <path class="cls-3" d="M106.68,0H39.5C17.68,0,0,17.68,0,39.5s17.68,39.5,39.5,39.5h67.18c21.81,0,39.5-17.68,39.5-39.5S128.49,0,106.68,0Z"/>
  <g>
    <path class="cls-4" d="M22.5,20.73h42.55v21.4c0,5.49-2.93,10.56-7.68,13.3l-13.6,7.85-13.6-7.85c-4.75-2.74-7.68-7.81-7.68-13.3v-21.4Z"/>
    <path class="cls-2" d="M34.18,31.99v6.65c.91-1.03,2.56-1.73,4.46-1.73h2.05v7.74c0,2.06-.56,3.86-1.39,4.85h8.94c-.83-.99-1.38-2.79-1.38-4.85v-7.74h2.05c1.89,0,3.55.7,4.46,1.73v-6.65h-19.2,0Z"/>
    <path class="cls-1" d="M107.22,34.65h-4.75v12.22h4.75c5.39,0,7.95-1.62,7.95-6.11s-2.56-6.11-7.95-6.11ZM107.22,28.19c12.34,0,15.86,5.75,15.86,12.57s-3.53,12.58-15.86,12.58h-12.38v-25.15h12.38Z"/>
    <path class="cls-1" d="M89.05,28.18v25.15h-7.63v-25.15h7.63Z"/>
  </g>
</svg>